<svg width="320" height="85" viewBox="0 0 320 85" fill="none" xmlns="http://www.w3.org/2000/svg">
<mask id="path-1-inside-1" fill="white">
<path fill-rule="evenodd" clip-rule="evenodd" d="M0 -0.75H-0.75V0V84.5H0.75V0.75H319.25V84.5H320.75V0V-0.75H320H0Z"/>
</mask>
<path d="M229.408 0.75V31.0901H230.35V0.75H229.408ZM100.337 31.0901V0.75H99.3945V31.0901H100.337ZM-0.75 -0.75V-1.69212H-1.69212V-0.75H-0.75ZM-0.75 84.5H-1.69212V85.4421H-0.75V84.5ZM0.75 84.5V85.4421H1.69212V84.5H0.75ZM0.75 0.75V-0.192123H-0.192123V0.75H0.75ZM319.25 0.75H320.192V-0.192123H319.25V0.75ZM319.25 84.5H318.308V85.4421H319.25V84.5ZM320.75 84.5V85.4421H321.692V84.5H320.75ZM320.75 -0.75H321.692V-1.69212H320.75V-0.75ZM-0.75 0.192123H0V-1.69212H-0.75V0.192123ZM0.192123 0V-0.75H-1.69212V0H0.192123ZM0.192123 84.5V0H-1.69212V84.5H0.192123ZM0.75 83.5579H-0.75V85.4421H0.75V83.5579ZM-0.192123 0.75V84.5H1.69212V0.75H-0.192123ZM319.25 -0.192123H0.75V1.69212H319.25V-0.192123ZM320.192 84.5V0.75H318.308V84.5H320.192ZM320.75 83.5579H319.25V85.4421H320.75V83.5579ZM319.808 0V84.5H321.692V0H319.808ZM319.808 -0.75V0H321.692V-0.75H319.808ZM320 0.192123H320.75V-1.69212H320V0.192123ZM0 0.192123H320V-1.69212H0V0.192123Z" fill="white" mask="url(#path-1-inside-1)"/>
<circle cx="21.6691" cy="16.0161" r="6.1238" stroke="white" stroke-width="0.942123"/>
<circle cx="49.9318" cy="16.0161" r="6.1238" stroke="white" stroke-width="0.942123"/>
<circle cx="78.1964" cy="16.0161" r="6.1238" stroke="white" stroke-width="0.942123"/>
<path d="M25.0638 48.9904L15.0742 58.4117M15.0742 58.4117L25.0638 67.8329M15.0742 58.4117H34.8588" stroke="white" stroke-width="0.942123"/>
<path d="M65.7946 67.8329L75.7842 58.4117M75.7842 58.4117L65.7946 48.9904M75.7842 58.4117L55.9996 58.4116" stroke="white" stroke-width="0.942123"/>
<path d="M115.067 53.0131C113.457 50.3414 110.528 48.5545 107.181 48.5545C102.1 48.5545 97.9814 52.6735 97.9814 57.7545C97.9814 62.8355 102.1 66.9545 107.181 66.9545C110.528 66.9545 113.457 65.1676 115.067 62.4959" stroke="white" stroke-width="0.942123"/>
<path d="M115.771 48.5546L115.771 53.2012L111.124 53.2012" stroke="white" stroke-width="0.942123"/>
<rect x="138.471" y="42.4711" width="107.058" height="31.0579" stroke="white" stroke-width="0.942123"/>
<circle cx="299.383" cy="50.8678" r="1.62255" fill="#1A1E33" stroke="white" stroke-width="0.942123"/>
<circle cx="299.383" cy="58.1954" r="1.62255" fill="#1A1E33" stroke="white" stroke-width="0.942123"/>
<circle cx="299.383" cy="65.523" r="1.62255" fill="#1A1E33" stroke="white" stroke-width="0.942123"/>
<path d="M267.759 51.2308H267.967C267.981 52.8093 267.988 53.9171 267.988 54.554H270.293L270.023 55.5094H267.905L267.926 62.1144C267.981 63.6929 268.459 64.4822 269.359 64.4822C269.608 64.4822 269.857 64.4268 270.106 64.316C270.356 64.2052 270.536 64.1014 270.646 64.0045C270.771 63.9075 270.833 63.8452 270.833 63.8175L271 63.9422C270.972 63.9837 270.93 64.0391 270.875 64.1083C270.833 64.1637 270.723 64.2676 270.543 64.4199C270.376 64.5722 270.19 64.7107 269.982 64.8353C269.774 64.9599 269.497 65.0707 269.151 65.1676C268.805 65.2645 268.445 65.313 268.071 65.313C267.545 65.313 267.088 65.223 266.7 65.043C266.312 64.863 266.022 64.6622 265.828 64.4406C265.634 64.2052 265.482 63.9283 265.371 63.6098C265.26 63.2775 265.191 63.0144 265.163 62.8206C265.149 62.6129 265.142 62.4121 265.142 62.2182V55.5094H264V55.3225C264.152 55.2117 264.36 55.0525 264.623 54.8448C264.886 54.6232 265.35 54.1594 266.015 53.4532C266.679 52.7332 267.261 51.9923 267.759 51.2308Z" fill="#00FEB3"/>
<path fill-rule="evenodd" clip-rule="evenodd" d="M275.321 51H275.883L275.885 51.2288C275.897 52.6314 275.904 53.6631 275.905 54.3232H278.285L277.885 55.7402H275.823L275.843 62.1099C275.871 62.8824 276.001 63.4265 276.21 63.7707C276.408 64.0984 276.679 64.2514 277.046 64.2514C277.26 64.2514 277.477 64.204 277.7 64.1051C277.942 63.9972 278.097 63.9046 278.181 63.8308L278.186 63.8264L278.192 63.8223C278.235 63.7884 278.267 63.7617 278.289 63.7416V63.356L279 63.8885L278.878 64.0702C278.846 64.1194 278.8 64.18 278.744 64.2501C278.683 64.3299 278.553 64.4487 278.382 64.5931C278.204 64.7554 278.006 64.902 277.787 65.0332C277.556 65.1722 277.257 65.2898 276.9 65.3898C276.533 65.4927 276.152 65.5438 275.758 65.5438C275.206 65.5438 274.714 65.4493 274.29 65.2523C273.885 65.0644 273.563 64.8468 273.341 64.5926L273.339 64.59L273.336 64.5874C273.124 64.3288 272.959 64.0272 272.84 63.6857L272.839 63.6828C272.726 63.3459 272.652 63.0675 272.622 62.8532L272.62 62.8446L272.62 62.8359C272.606 62.6235 272.598 62.4176 272.598 62.2182V55.7402H271.456V55.205L271.551 55.1359C271.699 55.0282 271.903 54.8719 272.164 54.666C272.416 54.4534 272.87 54.0002 273.533 53.2958C274.189 52.5847 274.762 51.8542 275.253 51.1044L275.321 51ZM277.523 64.6533C277.365 64.6928 277.206 64.713 277.046 64.713C276.512 64.713 276.094 64.4713 275.815 64.0097C275.546 63.5653 275.41 62.9266 275.382 62.1225L275.382 62.1188L275.36 55.2787H277.536L277.675 54.7848H275.444V54.554C275.444 53.9791 275.438 53.019 275.427 51.6732C274.97 52.3352 274.452 52.9807 273.871 53.6097L273.87 53.6114C273.206 54.3164 272.733 54.7899 272.459 55.0213L272.456 55.0237L272.453 55.0259C272.334 55.1197 272.226 55.204 272.129 55.2787H273.06V62.2182C273.06 62.4039 273.067 62.5965 273.08 62.7963C273.105 62.9691 273.169 63.2136 273.276 63.5354C273.378 63.829 273.517 64.0799 273.691 64.2912C273.856 64.4793 274.115 64.6624 274.484 64.8337C274.835 64.9967 275.258 65.0822 275.758 65.0822C276.111 65.0822 276.451 65.0364 276.776 64.9454C277.094 64.8561 277.341 64.7577 277.523 64.6533Z" fill="#00FEB3"/>
<line x1="99.5" y1="31" x2="99.5" y2="-1" stroke="white"/>
<line x1="245.5" y1="31" x2="245.5" y2="-1" stroke="white"/>
<line x1="245" y1="30.5" x2="320" y2="30.5" stroke="white"/>
<line x1="4.37114e-08" y1="30.5" x2="100" y2="30.5" stroke="white"/>
</svg>
