<svg width="1121" height="741" viewBox="0 0 1121 741" fill="none" xmlns="http://www.w3.org/2000/svg">
<mask id="mask0" mask-type="alpha" maskUnits="userSpaceOnUse" x="646" y="85" width="101" height="101">
<rect x="647.436" y="86.3065" width="99.0645" height="99.0645" fill="#C4C4C4" stroke="#1A1E33"/>
</mask>
<g mask="url(#mask0)">
<circle cx="719.886" cy="111.656" r="38.9307" fill="#CCD4FF" stroke="#1A1E33"/>
<mask id="mask1" mask-type="alpha" maskUnits="userSpaceOnUse" x="680" y="72" width="80" height="80">
<circle cx="719.886" cy="111.656" r="38.9307" fill="white" stroke="#1A1E33"/>
</mask>
<g mask="url(#mask1)">
<circle cx="720.095" cy="112.246" r="16.7471" fill="#1A1E33" stroke="#1A1E33"/>
<rect x="720.595" y="95.4986" width="39.962" height="1.15589" fill="#1A1E33" stroke="#1A1E33"/>
<rect x="734.719" y="120.379" width="39.962" height="1.15589" transform="rotate(120 734.719 120.379)" fill="#1A1E33" stroke="#1A1E33"/>
<rect x="705.288" y="120.223" width="39.962" height="1.15589" transform="rotate(-120 705.288 120.223)" fill="#1A1E33" stroke="#1A1E33"/>
</g>
</g>
<mask id="path-8-inside-1" fill="white">
<path fill-rule="evenodd" clip-rule="evenodd" d="M229.879 0H99.8656V30.7097H0V85.8065H747V30.7097H229.879V0Z"/>
</mask>
<path d="M99.8656 0V-0.942123H98.9234V0H99.8656ZM229.879 0H230.821V-0.942123H229.879V0ZM99.8656 30.7097V31.6518H100.808V30.7097H99.8656ZM0 30.7097V29.7676H-0.942123V30.7097H0ZM0 85.8065H-0.942123V86.7486H0V85.8065ZM747 85.8065V86.7486H747.942V85.8065H747ZM747 30.7097H747.942V29.7676H747V30.7097ZM229.879 30.7097H228.936V31.6518H229.879V30.7097ZM99.8656 0.942123H229.879V-0.942123H99.8656V0.942123ZM100.808 30.7097V0H98.9234V30.7097H100.808ZM0 31.6518H99.8656V29.7676H0V31.6518ZM0.942123 85.8065V30.7097H-0.942123V85.8065H0.942123ZM747 84.8643H0V86.7486H747V84.8643ZM746.058 30.7097V85.8065H747.942V30.7097H746.058ZM229.879 31.6518H747V29.7676H229.879V31.6518ZM228.936 0V30.7097H230.821V0H228.936Z" fill="white" mask="url(#path-8-inside-1)"/>
<rect x="0.471062" y="0.471062" width="746.058" height="632.058" stroke="white" stroke-width="0.942123"/>
<circle cx="21.6691" cy="16.0161" r="6.1238" stroke="white" stroke-width="0.942123"/>
<circle cx="49.9318" cy="16.0161" r="6.1238" stroke="white" stroke-width="0.942123"/>
<circle cx="78.1964" cy="16.0161" r="6.1238" stroke="white" stroke-width="0.942123"/>
<path d="M25.0638 48.9904L15.0742 58.4117M15.0742 58.4117L25.0638 67.8329M15.0742 58.4117H34.8588" stroke="white" stroke-width="0.942123"/>
<path d="M65.7946 67.8329L75.7842 58.4117M75.7842 58.4117L65.7946 48.9904M75.7842 58.4117L55.9996 58.4116" stroke="white" stroke-width="0.942123"/>
<path d="M115.067 53.0131C113.457 50.3414 110.528 48.5545 107.181 48.5545C102.1 48.5545 97.9814 52.6735 97.9814 57.7545C97.9814 62.8355 102.1 66.9545 107.181 66.9545C110.528 66.9545 113.457 65.1676 115.067 62.4959" stroke="white" stroke-width="0.942123"/>
<path d="M115.771 48.5546L115.771 53.2012L111.124 53.2012" stroke="white" stroke-width="0.942123"/>
<rect x="138.471" y="42.4711" width="505.058" height="31.0579" stroke="white" stroke-width="0.942123"/>
<rect x="486.471" y="295.471" width="633.122" height="444.348" fill="#1A1E33" stroke="white" stroke-width="0.942123"/>
<rect x="1003.05" y="295.471" width="116.477" height="443.994" stroke="white" stroke-width="0.942123"/>
<rect x="486.471" y="295.471" width="116.477" height="443.994" stroke="white" stroke-width="0.942123"/>
<rect x="486.471" y="295.471" width="633.122" height="84.8643" fill="#1A1E33" stroke="white" stroke-width="0.942123"/>
<circle cx="507.046" cy="310.627" r="6.1238" stroke="white" stroke-width="0.942123"/>
<circle cx="535.311" cy="310.627" r="6.1238" stroke="white" stroke-width="0.942123"/>
<circle cx="563.574" cy="310.627" r="6.1238" stroke="white" stroke-width="0.942123"/>
<rect x="502.2" y="337.923" width="44.7268" height="31.0901" stroke="white" stroke-width="0.942123"/>
<rect x="546.876" y="337.923" width="44.7268" height="31.0901" stroke="white" stroke-width="0.942123"/>
<rect x="843.317" y="337.923" width="44.7267" height="31.0901" stroke="white" stroke-width="0.942123"/>
<rect x="887.993" y="337.923" width="44.7268" height="31.0901" stroke="white" stroke-width="0.942123"/>
<rect x="628.03" y="337.923" width="44.7268" height="31.0901" stroke="white" stroke-width="0.942123"/>
<rect x="717.382" y="337.923" width="44.7267" height="31.0901" stroke="white" stroke-width="0.942123"/>
<rect x="672.705" y="337.923" width="44.7268" height="31.0901" stroke="white" stroke-width="0.942123"/>
<rect x="762.058" y="337.923" width="44.7267" height="31.0901" stroke="white" stroke-width="0.942123"/>
<rect x="486.471" y="707.955" width="116.477" height="31.574" stroke="white" stroke-width="0.942123"/>
<rect x="486.471" y="676.342" width="116.477" height="31.574" stroke="white" stroke-width="0.942123"/>
<rect x="486.471" y="644.729" width="116.477" height="31.574" stroke="white" stroke-width="0.942123"/>
<rect x="486.471" y="613.116" width="116.477" height="31.574" stroke="white" stroke-width="0.942123"/>
<rect x="486.471" y="581.503" width="116.477" height="31.574" stroke="white" stroke-width="0.942123"/>
<rect x="621.879" y="439.814" width="362.243" height="240.372" stroke="white" stroke-width="0.789677"/>
<path d="M667.967 495.226C670.527 494.906 672.187 494.746 672.947 494.746C675.387 494.746 677.787 494.966 680.147 495.406C682.507 495.806 684.907 496.566 687.347 497.686C689.827 498.766 691.967 500.146 693.767 501.826C695.607 503.466 697.107 505.646 698.267 508.366C699.427 511.086 700.007 514.166 700.007 517.606C700.007 522.006 699.327 525.866 697.967 529.186C696.647 532.466 694.747 535.086 692.267 537.046C689.787 539.006 686.947 540.466 683.747 541.426C680.587 542.346 677.027 542.806 673.067 542.806C671.787 542.806 670.207 542.666 668.327 542.386H668.087C665.927 542.066 664.267 541.906 663.107 541.906C658.547 541.906 654.827 542.206 651.947 542.806V542.326C652.107 542.286 652.307 542.246 652.547 542.206C652.787 542.166 653.227 542.026 653.867 541.786C654.507 541.546 655.067 541.286 655.547 541.006C656.067 540.686 656.527 540.246 656.927 539.686C657.327 539.086 657.527 538.426 657.527 537.706L657.587 499.846C657.587 498.726 657.107 497.786 656.147 497.026C655.227 496.266 654.307 495.786 653.387 495.586L651.947 495.286V494.806C654.667 495.326 658.167 495.586 662.447 495.586C663.967 495.586 665.807 495.466 667.967 495.226ZM667.967 496.246V537.706C667.967 540.426 669.667 541.786 673.067 541.786C674.227 541.786 675.247 541.746 676.127 541.666C677.007 541.546 678.007 541.306 679.127 540.946C680.247 540.586 681.207 540.086 682.007 539.446C682.807 538.766 683.607 537.826 684.407 536.626C685.207 535.426 685.867 534.006 686.387 532.366C686.907 530.726 687.327 528.686 687.647 526.246C687.967 523.766 688.127 520.966 688.127 517.846C688.127 514.366 687.807 511.286 687.167 508.606C686.527 505.926 685.687 503.806 684.647 502.246C683.647 500.646 682.447 499.346 681.047 498.346C679.687 497.346 678.347 496.666 677.027 496.306C675.707 495.946 674.347 495.766 672.947 495.766C671.867 495.766 670.907 495.806 670.067 495.886C669.227 495.966 668.667 496.046 668.387 496.126L667.967 496.246Z" fill="#00FEB3"/>
<path d="M702.198 516.466C704.718 516.066 706.478 515.786 707.478 515.626C708.478 515.426 709.678 515.086 711.078 514.606C712.478 514.126 713.798 513.506 715.038 512.746L715.458 512.806V539.266V539.386C715.458 540.066 715.718 540.646 716.238 541.126C716.798 541.606 717.438 541.926 718.158 542.086L719.058 542.326V542.806C716.778 542.486 714.218 542.326 711.378 542.326C708.578 542.326 706.058 542.486 703.818 542.806C703.818 542.606 703.798 542.446 703.758 542.326L704.658 542.086C705.298 541.926 705.898 541.626 706.458 541.186C707.058 540.706 707.358 540.186 707.358 539.626V539.566L707.418 523.606C707.418 521.766 706.938 520.286 705.978 519.166C705.058 518.006 703.798 517.226 702.198 516.826V516.466ZM706.998 499.366C710.318 496.006 711.978 494.266 711.978 494.146L717.018 499.366L711.978 504.646L706.998 499.366Z" fill="#00FEB3"/>
<path d="M731.886 502.726H732.486C732.526 507.286 732.546 510.486 732.546 512.326H739.206L738.426 515.086H732.306L732.366 534.166C732.526 538.726 733.906 541.006 736.506 541.006C737.226 541.006 737.946 540.846 738.666 540.526C739.386 540.206 739.906 539.906 740.226 539.626C740.586 539.346 740.766 539.166 740.766 539.086L741.246 539.446C741.166 539.566 741.046 539.726 740.886 539.926C740.766 540.086 740.446 540.386 739.926 540.826C739.446 541.266 738.906 541.666 738.306 542.026C737.706 542.386 736.906 542.706 735.906 542.986C734.906 543.266 733.866 543.406 732.786 543.406C731.266 543.406 729.946 543.146 728.826 542.626C727.706 542.106 726.866 541.526 726.306 540.886C725.746 540.206 725.306 539.406 724.986 538.486C724.666 537.526 724.466 536.766 724.386 536.206C724.346 535.606 724.326 535.026 724.326 534.466V515.086H721.026V514.546C721.466 514.226 722.066 513.766 722.826 513.166C723.586 512.526 724.926 511.186 726.846 509.146C728.766 507.066 730.446 504.926 731.886 502.726Z" fill="#00FEB3"/>
<path d="M754.094 502.726H754.694C754.734 507.286 754.754 510.486 754.754 512.326H761.414L760.634 515.086H754.514L754.574 534.166C754.734 538.726 756.114 541.006 758.714 541.006C759.434 541.006 760.154 540.846 760.874 540.526C761.594 540.206 762.114 539.906 762.434 539.626C762.794 539.346 762.974 539.166 762.974 539.086L763.454 539.446C763.374 539.566 763.254 539.726 763.094 539.926C762.974 540.086 762.654 540.386 762.134 540.826C761.654 541.266 761.114 541.666 760.514 542.026C759.914 542.386 759.114 542.706 758.114 542.986C757.114 543.266 756.074 543.406 754.994 543.406C753.474 543.406 752.154 543.146 751.034 542.626C749.914 542.106 749.074 541.526 748.514 540.886C747.954 540.206 747.514 539.406 747.194 538.486C746.874 537.526 746.674 536.766 746.594 536.206C746.554 535.606 746.534 535.026 746.534 534.466V515.086H743.234V514.546C743.674 514.226 744.274 513.766 745.034 513.166C745.794 512.526 747.134 511.186 749.054 509.146C750.974 507.066 752.654 504.926 754.094 502.726Z" fill="#00FEB3"/>
<path d="M765.741 527.746C765.741 523.346 767.301 519.646 770.421 516.646C773.581 513.686 777.361 512.206 781.761 512.206C786.201 512.206 790.001 513.686 793.161 516.646C796.281 519.646 797.861 523.346 797.901 527.746C797.861 532.306 796.281 536.046 793.161 538.966C790.081 541.926 786.281 543.406 781.761 543.406C777.281 543.406 773.501 541.926 770.421 538.966C767.301 536.006 765.741 532.266 765.741 527.746ZM784.401 513.706C783.641 513.386 782.761 513.226 781.761 513.226C780.761 513.226 779.881 513.386 779.121 513.706C778.401 514.026 777.821 514.546 777.381 515.266C776.941 515.986 776.581 516.706 776.301 517.426C776.021 518.106 775.821 519.066 775.701 520.306C775.581 521.506 775.501 522.546 775.461 523.426C775.461 524.266 775.461 525.426 775.461 526.906V527.686V528.466C775.461 529.986 775.461 531.186 775.461 532.066C775.501 532.906 775.581 533.946 775.701 535.186C775.821 536.426 776.021 537.406 776.301 538.126C776.581 538.806 776.941 539.506 777.381 540.226C777.821 540.946 778.401 541.466 779.121 541.786C779.881 542.106 780.761 542.266 781.761 542.266C782.761 542.266 783.641 542.106 784.401 541.786C785.161 541.466 785.761 540.946 786.201 540.226C786.641 539.506 787.001 538.806 787.281 538.126C787.561 537.406 787.761 536.426 787.881 535.186C788.001 533.946 788.061 532.906 788.061 532.066C788.101 531.186 788.121 529.986 788.121 528.466V527.686V526.906C788.121 525.426 788.101 524.266 788.061 523.426C788.061 522.546 788.001 521.486 787.881 520.246C787.761 519.006 787.561 518.046 787.281 517.366C787.001 516.686 786.641 515.986 786.201 515.266C785.761 514.546 785.161 514.026 784.401 513.706Z" fill="#00FEB3"/>
<rect x="650.387" y="570.484" width="186.065" height="7.22581" fill="#CCD4FF"/>
<rect x="650.387" y="586.742" width="155.355" height="7.22581" fill="#CCD4FF"/>
<path d="M674.17 48.3174H674.455C674.474 50.4881 674.484 52.0114 674.484 52.8873H677.654L677.283 54.2012H674.37L674.398 63.284C674.474 65.4548 675.131 66.5401 676.369 66.5401C676.712 66.5401 677.055 66.464 677.397 66.3116C677.74 66.1593 677.988 66.0165 678.14 65.8832C678.311 65.7499 678.397 65.6642 678.397 65.6261L678.626 65.7975C678.587 65.8546 678.53 65.9308 678.454 66.026C678.397 66.1022 678.245 66.245 677.997 66.4545C677.769 66.6639 677.512 66.8543 677.226 67.0257C676.94 67.1971 676.56 67.3494 676.083 67.4827C675.607 67.616 675.112 67.6826 674.598 67.6826C673.875 67.6826 673.246 67.5589 672.713 67.3113C672.18 67.0638 671.78 66.7877 671.513 66.483C671.247 66.1593 671.037 65.7785 670.885 65.3405C670.733 64.8835 670.638 64.5217 670.599 64.2552C670.58 63.9695 670.571 63.6934 670.571 63.4268V54.2012H669V53.9441C669.209 53.7918 669.495 53.5728 669.857 53.2872C670.219 52.9825 670.857 52.3446 671.771 51.3735C672.685 50.3834 673.484 49.3646 674.17 48.3174Z" fill="#00FEB3"/>
<path fill-rule="evenodd" clip-rule="evenodd" d="M684.569 48H685.34L685.343 48.3146C685.36 50.2435 685.369 51.6622 685.371 52.57H688.644L688.093 54.5186H685.258L685.286 63.2779C685.324 64.3402 685.503 65.0883 685.79 65.5618C686.063 66.0124 686.435 66.2228 686.939 66.2228C687.234 66.2228 687.533 66.1577 687.839 66.0216C688.173 65.8732 688.385 65.7458 688.501 65.6444L688.508 65.6383L688.515 65.6327C688.575 65.5861 688.619 65.5494 688.65 65.5217V64.9914L689.626 65.7238L689.46 65.9736C689.415 66.0412 689.352 66.1246 689.275 66.221C689.191 66.3308 689.012 66.494 688.777 66.6927C688.533 66.9159 688.26 67.1175 687.96 67.2978C687.641 67.489 687.231 67.6507 686.739 67.7883C686.234 67.9297 685.71 68 685.169 68C684.409 68 683.733 67.8701 683.15 67.5992C682.593 67.3407 682.151 67.0415 681.845 66.692L681.842 66.6884L681.839 66.6848C681.546 66.3292 681.319 65.9145 681.156 65.4448L681.154 65.4409C681 64.9776 680.898 64.5947 680.856 64.3L680.854 64.2882L680.853 64.2763C680.834 63.9841 680.824 63.701 680.824 63.4268V54.5186H679.253V53.7825L679.384 53.6875C679.587 53.5393 679.868 53.3244 680.227 53.0413C680.573 52.749 681.197 52.1257 682.109 51.1571C683.011 50.1793 683.8 49.1747 684.475 48.1436L684.569 48ZM687.596 66.7755C687.379 66.8298 687.16 66.8575 686.939 66.8575C686.206 66.8575 685.631 66.5252 685.247 65.8904C684.877 65.2793 684.69 64.401 684.651 63.2952L684.651 63.2901L684.622 53.8838H687.613L687.805 53.2047H684.737V52.8873C684.737 52.0967 684.729 50.7764 684.714 48.9258C684.086 49.8362 683.372 50.7238 682.574 51.5888L682.572 51.591C681.659 52.5605 681.01 53.2117 680.632 53.53L680.628 53.5332L680.624 53.5363C680.46 53.6653 680.312 53.7812 680.179 53.8838H681.459V63.4268C681.459 63.6821 681.468 63.9471 681.486 64.2218C681.521 64.4594 681.608 64.7957 681.756 65.2382C681.896 65.6418 682.087 65.987 682.326 66.2776C682.553 66.5361 682.91 66.7879 683.417 67.0235C683.9 67.2476 684.481 67.3653 685.169 67.3653C685.655 67.3653 686.121 67.3023 686.568 67.1771C687.006 67.0544 687.346 66.919 687.596 66.7755Z" fill="#00FEB3"/>
<rect x="1013.82" y="337.923" width="44.7267" height="31.0901" stroke="white" stroke-width="0.942123"/>
<rect x="969.147" y="337.923" width="44.7268" height="31.0901" stroke="white" stroke-width="0.942123"/>
<rect x="1058.5" y="337.923" width="44.7267" height="31.0901" stroke="white" stroke-width="0.942123"/>
<circle cx="718.384" cy="50.8678" r="1.62255" fill="#1A1E33" stroke="white" stroke-width="0.942123"/>
<circle cx="718.384" cy="58.1954" r="1.62255" fill="#1A1E33" stroke="white" stroke-width="0.942123"/>
<circle cx="718.384" cy="65.523" r="1.62255" fill="#1A1E33" stroke="white" stroke-width="0.942123"/>
<mask id="mask2" mask-type="alpha" maskUnits="userSpaceOnUse" x="1057" y="380" width="63" height="64">
<path d="M1067.12 380.806H1120V418.25L1098.25 443.125L1057 394.625L1067.12 380.806Z" fill="#C4C4C4"/>
</mask>
<g mask="url(#mask2)">
<path d="M1056.38 395.227H1072.46L1096.07 441.452L1056.38 395.227Z" fill="#CCD4FF" stroke="#1A1E33"/>
<path d="M1140.48 395.227H1124.4L1100.79 441.452L1140.48 395.227Z" fill="#CCD4FF" stroke="#1A1E33"/>
<path d="M1098.43 443.862L1073.58 395.227H1123.28L1098.43 443.862Z" fill="#CCD4FF" stroke="#1A1E33"/>
<path d="M1073.34 393.367L1074.59 369.909L1097.16 367.523L1073.34 393.367Z" fill="#CCD4FF" stroke="#1A1E33"/>
<path d="M1123.52 393.367L1122.27 369.909L1099.7 367.523L1123.52 393.367Z" fill="#CCD4FF" stroke="#1A1E33"/>
<path d="M1072.29 394.226H1056.29L1073.53 371.083L1072.29 394.226Z" fill="#CCD4FF" stroke="#1A1E33"/>
<path d="M1122.95 394.227H1073.9L1098.43 367.624L1122.95 394.227Z" fill="#CCD4FF" stroke="#1A1E33"/>
</g>
</svg>
