<svg height="24" viewBox="0 0 24 24" width="24" xmlns="http://www.w3.org/2000/svg" xmlns:xlink="http://www.w3.org/1999/xlink"><defs><path id="a" d="m15.579 4h-8.21c-.754 0-1.369.616-1.369 1.368v9.58h1.368v-9.58h8.21v-1.368zm2.053 2.737h-7.527c-.752 0-1.368.616-1.368 1.368v9.58c0 .752.616 1.368 1.368 1.368h7.527c.752 0 1.368-.616 1.368-1.369v-9.579c0-.752-.616-1.368-1.368-1.368zm0 10.947h-7.527v-9.579h7.527v9.58z"/><mask id="b" fill="#fff"><use fill="#fff" fill-rule="evenodd" xlink:href="#a"/></mask></defs><g fill="none" fill-rule="evenodd"><path d="m0 0h24v24h-24z"/><use class="klepto-copy-svg" fill="#000" fill-rule="nonzero" xlink:href="#a"/><g class="klepto-copy-svg" fill="#AAA" mask="url(#b)"><path d="m0 0h24v24h-24z"/></g></g></svg>