<svg xmlns="http://www.w3.org/2000/svg" xmlns:xlink="http://www.w3.org/1999/xlink" width="28" height="48" viewBox="0 0 28 48">
    <defs>
        <path id="a" d="M14 48c.67 0 1.007-.333 1-1 .5-18 13-23 13-33 0-8-6-14-14-14S0 6 0 14c0 10 12.5 15 13 33 0 .66.33 1 1 1z"/>
        <circle id="c" cx="14" cy="14" r="6"/>
    </defs>
    <g fill="none" fill-rule="evenodd">
        <mask id="b" fill="#fff">
            <use xlink:href="#a"/>
        </mask>
        <mask id="d" fill="#fff">
            <use xlink:href="#c"/>
        </mask>
        <path fill-rule="nonzero" stroke="#000" d="M14 47.5c.395 0 .504-.109.5-.514.212-7.633 2.304-13.052 6.576-19.47.33-.496.666-.99 1.111-1.639a901.059 901.059 0 0 1 1.077-1.567c.843-1.233 1.422-2.126 1.936-3.001 1.553-2.646 2.3-4.876 2.3-7.309C27.5 6.276 21.724.5 14 .5S.5 6.276.5 14c0 2.433.747 4.663 2.3 7.309.514.875 1.093 1.768 1.936 3.001a236.62 236.62 0 0 0 1.077 1.567c.445.648.782 1.143 1.111 1.638C11.196 33.935 13.288 39.353 13.5 47c0 .389.11.5.5.5z" opacity=".5"/>
    </g>
</svg>
