<svg width="34" height="31" viewBox="0 0 34 31" fill="none" xmlns="http://www.w3.org/2000/svg">
<g style="mix-blend-mode:color-dodge">
<path fill-rule="evenodd" clip-rule="evenodd" d="M7.05829 11.0097L16.9997 30.468L0.290039 11.0097H7.05829Z" fill="#EA6C00"/>
<path fill-rule="evenodd" clip-rule="evenodd" d="M26.9417 11.0097L17.0003 30.4679L33.71 11.0097H26.9417Z" fill="#EA6C00"/>
<path fill-rule="evenodd" clip-rule="evenodd" d="M7.05859 11.0097H26.9414L17 30.4679L7.05859 11.0097Z" fill="#FDAD00"/>
<path fill-rule="evenodd" clip-rule="evenodd" d="M16.999 0.2258L7.58083 1.22148L7.05762 11.0097L16.999 0.2258Z" fill="#FDD231"/>
<path fill-rule="evenodd" clip-rule="evenodd" d="M17 0.2258L26.4182 1.22148L26.9414 11.0097L17 0.2258Z" fill="#FDD231"/>
<path fill-rule="evenodd" clip-rule="evenodd" d="M33.709 11.0097L26.4174 1.22147L26.9407 11.0097H33.709Z" fill="#FDAD00"/>
<path fill-rule="evenodd" clip-rule="evenodd" d="M0.290039 11.0097L7.5815 1.22147L7.05829 11.0097H0.290039Z" fill="#FDAD00"/>
<path fill-rule="evenodd" clip-rule="evenodd" d="M16.999 0.2258L7.05762 11.0097H26.9405L16.999 0.2258Z" fill="#FEEEB7"/>
</g>
</svg>
